    <svg
      width="974"
      height="956"
      viewBox="0 0 974 956"
      fill="none"
      xmlns="http://www.w3.org/2000/svg"
    >
      <path
        d="M690.175 654.597L690.175 654.597C702.259 663.072 716.486 667.611 731.056 667.611C750.598 667.611 769.302 659.457 783.058 645.014L783.058 645.014C796.807 630.573 804.5 611.033 804.5 590.695C804.5 575.523 800.217 560.682 792.169 548.036C784.125 535.392 772.67 525.506 759.229 519.66L759.228 519.66C745.779 513.813 730.976 512.28 716.688 515.264L717.506 519.179L716.688 515.264C702.408 518.247 689.31 525.606 679.053 536.376L681.653 538.852L679.053 536.376C668.799 547.145 661.832 560.838 659.014 575.723C656.197 590.605 657.639 606.033 663.173 620.068L663.174 620.069C668.714 634.098 678.099 646.123 690.175 654.597ZM139.695 230.111H834.137C869.834 230.153 904.103 245.06 929.403 271.63L932.3 268.871L929.404 271.63C954.716 298.208 968.984 334.283 969.028 371.949V809.44C968.984 847.109 954.716 883.182 929.404 909.758L932.3 912.517L929.403 909.759C904.103 936.328 869.833 951.235 834.134 951.278H139.698C103.998 951.235 69.7302 936.328 44.4243 909.758C19.1129 883.182 4.84353 847.11 4.80383 809.443V371.947C4.84353 334.281 19.1129 298.207 44.4244 271.63C69.7298 245.06 103.997 230.153 139.695 230.111Z"
        fill="#9E5932"
        stroke="#242424"
        stroke-width="8"></path>
      <path
        d="M730 666.5C688.922 666.5 655.5 633.078 655.5 592C655.5 550.922 688.922 517.5 730 517.5C771.078 517.5 804.5 550.922 804.5 592C804.5 633.078 771.078 666.5 730 666.5Z"
        fill="#242424"></path>
    </svg>