<svg width="974" height="900" viewBox="0 0 974 900" fill="none" xmlns="http://www.w3.org/2000/svg">
<g filter="url(#filter0_d_1560_3148)">
<path d="M177.16 245.637L847.368 325.306L870.312 329.734C870.111 306.751 867.016 283.424 859.765 262.153C852.414 241.722 841.007 222.508 828.136 207.373C814.402 191.284 798.14 179.997 780.416 172.788C762.692 165.579 744.469 162.563 725.549 165.416L160.963 217.351L159.999 217.236C124.286 221.494 90.5369 242.142 66 275.791C100.148 251.788 139.551 241.166 177.16 245.637Z" fill="#242424"/>
</g>
<g filter="url(#filter1_d_1560_3148)">
<path d="M664.022 590.001C676.891 598.583 692.603 602.433 708.236 600.836C723.869 599.239 738.36 592.304 749.015 581.319C756.708 573.426 762.339 563.925 765.453 553.583C768.567 543.241 769.078 532.348 766.943 521.783C764.808 511.219 760.087 501.28 753.163 492.769C746.238 484.259 737.304 477.414 727.081 472.789C715.2 467.58 701.492 465.843 688.697 468.448C674.989 471.053 663.108 477.999 653.969 486.681C644.519 496.278 638.129 508.225 635.54 521.135C632.952 534.045 634.272 547.387 639.346 559.613C644.83 571.768 653.055 582.187 664.022 590.001ZM161.377 221H795.623C828.524 221 859.596 234.024 882.444 257.466C906.205 280.04 919 311.297 919 344.29V723.71C919 756.703 906.205 787.96 882.444 811.402C859.596 833.976 828.524 847 795.623 847H161.377C128.476 847 97.4035 833.976 73.6421 811.402C50.7946 787.96 38 756.703 38 723.71V344.29C38 311.297 50.7946 280.04 73.6421 257.466C97.4035 234.024 128.476 221 161.377 221Z" fill="#9E5932"/>
<path d="M688.697 468.448C701.492 465.843 715.2 467.58 727.081 472.789C737.304 477.414 746.238 484.259 753.163 492.769C760.087 501.28 764.808 511.219 766.943 521.783C769.078 532.348 768.567 543.241 765.453 553.583C762.339 563.925 756.707 573.426 749.015 581.319C738.36 592.304 723.869 599.239 708.236 600.836C692.603 602.433 676.891 598.583 664.022 590.001C653.055 582.187 644.83 571.768 639.346 559.613C634.272 547.387 632.952 534.045 635.54 521.135C638.129 508.225 644.519 496.278 653.969 486.681M688.697 468.448L689.611 471.921M688.697 468.448C674.989 471.053 663.108 477.999 653.969 486.681M653.969 486.681L656.711 489.286M882.444 257.466C859.596 234.024 828.524 221 795.623 221H161.377C128.476 221 97.4035 234.024 73.6421 257.466C50.7946 280.04 38 311.297 38 344.29V723.71C38 756.703 50.7946 787.96 73.6421 811.402C97.4035 833.976 128.476 847 161.377 847H795.623C828.524 847 859.596 833.976 882.444 811.402M882.444 257.466L885.186 254.861M882.444 257.466C906.205 280.04 919 311.297 919 344.29V723.71C919 756.703 906.205 787.96 882.444 811.402M882.444 811.402L885.186 814.007" stroke="#242424" stroke-width="8"/>
</g>
<g filter="url(#filter2_d_1560_3148)">
<path d="M700 607C680.374 607 661.552 599.362 647.674 585.765C633.796 572.169 626 553.728 626 534.5C626 515.272 633.796 496.831 647.674 483.235C661.552 469.638 680.374 462 700 462C719.626 462 738.448 469.638 752.326 483.235C766.204 496.831 774 515.272 774 534.5C774 553.728 766.204 572.169 752.326 585.765C738.448 599.362 719.626 607 700 607Z" fill="#242424"/>
</g>
<defs>
<filter id="filter0_d_1560_3148" x="62" y="164.351" width="812.312" height="173.384" filterUnits="userSpaceOnUse" color-interpolation-filters="sRGB">
<feFlood flood-opacity="0" result="BackgroundImageFix"/>
<feColorMatrix in="SourceAlpha" type="matrix" values="0 0 0 0 0 0 0 0 0 0 0 0 0 0 0 0 0 0 127 0" result="hardAlpha"/>
<feOffset dy="4"/>
<feGaussianBlur stdDeviation="2"/>
<feComposite in2="hardAlpha" operator="out"/>
<feColorMatrix type="matrix" values="0 0 0 0 0 0 0 0 0 0 0 0 0 0 0 0 0 0 0.25 0"/>
<feBlend mode="normal" in2="BackgroundImageFix" result="effect1_dropShadow_1560_3148"/>
<feBlend mode="normal" in="SourceGraphic" in2="effect1_dropShadow_1560_3148" result="shape"/>
</filter>
<filter id="filter1_d_1560_3148" x="30" y="217" width="897" height="642" filterUnits="userSpaceOnUse" color-interpolation-filters="sRGB">
<feFlood flood-opacity="0" result="BackgroundImageFix"/>
<feColorMatrix in="SourceAlpha" type="matrix" values="0 0 0 0 0 0 0 0 0 0 0 0 0 0 0 0 0 0 127 0" result="hardAlpha"/>
<feOffset dy="4"/>
<feGaussianBlur stdDeviation="2"/>
<feComposite in2="hardAlpha" operator="out"/>
<feColorMatrix type="matrix" values="0 0 0 0 0 0 0 0 0 0 0 0 0 0 0 0 0 0 0.25 0"/>
<feBlend mode="normal" in2="BackgroundImageFix" result="effect1_dropShadow_1560_3148"/>
<feBlend mode="normal" in="SourceGraphic" in2="effect1_dropShadow_1560_3148" result="shape"/>
</filter>
<filter id="filter2_d_1560_3148" x="622" y="462" width="156" height="153" filterUnits="userSpaceOnUse" color-interpolation-filters="sRGB">
<feFlood flood-opacity="0" result="BackgroundImageFix"/>
<feColorMatrix in="SourceAlpha" type="matrix" values="0 0 0 0 0 0 0 0 0 0 0 0 0 0 0 0 0 0 127 0" result="hardAlpha"/>
<feOffset dy="4"/>
<feGaussianBlur stdDeviation="2"/>
<feComposite in2="hardAlpha" operator="out"/>
<feColorMatrix type="matrix" values="0 0 0 0 0 0 0 0 0 0 0 0 0 0 0 0 0 0 0.25 0"/>
<feBlend mode="normal" in2="BackgroundImageFix" result="effect1_dropShadow_1560_3148"/>
<feBlend mode="normal" in="SourceGraphic" in2="effect1_dropShadow_1560_3148" result="shape"/>
</filter>
</defs>
</svg>
