<svg width="974" height="956" viewBox="0 0 974 956" fill="none" xmlns="http://www.w3.org/2000/svg">
<path d="M152.382 175.254H846.742C854.852 175.249 862.957 175.99 871 177.477C868.273 149.858 861.695 123.322 851.669 99.4692C841.642 75.6158 828.372 54.9398 812.657 38.6862C796.937 22.4334 779.105 10.941 760.224 4.90057C741.349 -1.13925 721.818 -1.60117 702.815 3.54274L131.768 144.198H131.116C95.272 154.088 63.3964 183.348 42 226C74.2356 192.92 112.823 175.18 152.382 175.254Z" fill="#242424"/>
<path d="M690.175 654.597L690.175 654.597C702.259 663.072 716.486 667.611 731.056 667.611C750.598 667.611 769.302 659.457 783.058 645.014L783.058 645.014C796.807 630.573 804.5 611.033 804.5 590.695C804.5 575.523 800.217 560.682 792.169 548.036C784.125 535.392 772.67 525.506 759.229 519.66L759.228 519.66C745.779 513.813 730.976 512.28 716.688 515.264L717.506 519.179L716.688 515.264C702.408 518.247 689.31 525.606 679.053 536.376L681.653 538.852L679.053 536.376C668.799 547.145 661.832 560.838 659.014 575.723C656.197 590.605 657.639 606.033 663.173 620.068L663.174 620.069C668.714 634.098 678.099 646.123 690.175 654.597ZM139.695 230.111H834.137C869.834 230.153 904.103 245.06 929.403 271.63L932.3 268.871L929.404 271.63C954.716 298.208 968.984 334.283 969.028 371.949V809.44C968.984 847.109 954.716 883.182 929.404 909.758L932.3 912.517L929.403 909.759C904.103 936.328 869.833 951.235 834.134 951.278H139.698C103.998 951.235 69.7302 936.328 44.4243 909.758C19.1129 883.182 4.84353 847.11 4.80383 809.443V371.947C4.84353 334.281 19.1129 298.207 44.4244 271.63C69.7298 245.06 103.997 230.153 139.695 230.111Z" fill="#9E5932" stroke="#242424" stroke-width="8"/>
<path d="M6.38885 518.722V299.028C6.38885 250.636 31.8746 170.672 119.191 153.348C157.292 145.845 195.252 142.086 223.716 140.205C237.941 139.265 249.775 138.795 258.047 138.56C262.183 138.443 265.427 138.385 267.632 138.355C268.372 138.345 268.995 138.339 269.495 138.335C269.73 138.514 269.997 138.719 270.291 138.947C271.536 139.914 273.273 141.297 275.232 142.956C279.194 146.312 283.888 150.651 287.281 154.874C288.984 156.993 290.216 158.908 290.901 160.515C291.609 162.175 291.505 162.955 291.429 163.188L291.428 163.192C291.407 163.258 291.223 163.859 289.511 164.52C287.67 165.231 284.571 165.785 279.667 165.785C268.288 165.785 259.408 169.667 253.393 175.877C247.428 182.036 244.571 190.188 244.649 198.242C244.727 206.292 247.738 214.406 253.709 220.53C259.732 226.706 268.524 230.611 279.667 230.611C284.233 230.611 287.195 231.38 289.075 232.382C290.848 233.328 291.831 234.567 292.39 236.058C293.658 239.439 292.961 244.763 290.508 251.306C288.15 257.596 284.563 264 281.496 268.908C279.974 271.344 278.605 273.373 277.62 274.787C277.128 275.494 276.733 276.046 276.464 276.417C276.33 276.603 276.227 276.743 276.159 276.835L276.134 276.869L115.192 468.54L6.38885 518.722Z" fill="#9E5932" stroke="#242424" stroke-width="9"/>
<path d="M730 666.5C688.922 666.5 655.5 633.078 655.5 592C655.5 550.922 688.922 517.5 730 517.5C771.078 517.5 804.5 550.922 804.5 592C804.5 633.078 771.078 666.5 730 666.5Z" fill="#242424" />
</svg>
