<svg width="974" height="956" fill="none"><path fill="#242424" d="M152 175h695l24 2c-3-27-9-54-19-78-10-23-24-44-39-60-16-17-34-28-53-34s-38-7-57-1L132 144h-1c-36 10-68 39-89 82 32-33 71-51 110-51Z"/><path fill="#9E5932" stroke="#242424" stroke-width="8" d="M690 655a71 71 0 0 0 93-10 79 79 0 0 0-24-125c-13-6-28-8-42-5l1 4-1-4c-15 3-28 11-38 21l3 3-3-3a80 80 0 0 0-16 84c6 14 15 26 27 35ZM140 230h694c36 0 70 15 95 42l3-3-3 3c26 26 40 62 40 100v437c0 38-14 74-40 101l3 3-3-3c-25 26-59 41-95 41H140c-36 0-70-15-96-41-25-27-39-63-39-101V372c0-38 14-74 39-100 26-27 60-42 96-42Z"/><path fill="#9E5932" stroke="#242424" stroke-width="9" d="M6 519V299c0-48 26-128 113-146a842 842 0 0 1 151-14 152 152 0 0 1 17 16l4 6v2l-1 2-10 1c-12 0-21 4-27 10s-8 14-8 22 3 16 9 23c6 6 15 10 26 10l9 1 3 4c2 3 1 9-1 15a103 103 0 0 1-15 26L115 469 6 519Z"/><path fill="#242424" d="M730 667a75 75 0 1 1 0-150 75 75 0 0 1 0 150Z"/></svg>