<svg width="339" height="339" viewBox="0 0 339 339" fill="none" xmlns="http://www.w3.org/2000/svg">
<g clip-path="url(#clip0_1248_23173)">
<path d="M227.043 238.148C216.873 246.849 196.575 252.767 173.199 252.767C144.497 252.767 120.442 243.84 114.057 231.82C111.783 238.713 111.26 246.594 111.26 251.623C111.26 251.623 109.763 276.341 126.953 293.546C126.953 284.619 134.199 277.373 143.126 277.373C158.424 277.373 158.41 290.721 158.396 301.555V302.529C158.396 318.971 168.438 333.053 182.733 339C180.532 334.471 179.392 329.501 179.399 324.465C179.399 308.787 188.609 302.953 199.316 296.173C207.819 290.763 217.283 284.774 223.794 272.725C227.306 266.246 229.141 258.992 229.134 251.623C229.136 247.05 228.43 242.505 227.043 238.148ZM219.656 8.475C222.424 11.9215 223.837 16.5545 226.662 25.8346L288.36 228.486C265.185 216.46 240.312 208.039 214.599 203.513L174.442 67.8C174.12 66.7176 173.457 65.7683 172.551 65.0943C171.646 64.4202 170.546 64.0576 169.417 64.0608C168.288 64.064 167.19 64.4328 166.288 65.1119C165.386 65.791 164.728 66.744 164.413 67.8282L124.722 203.471C98.8939 207.977 73.909 216.413 50.636 228.486L112.631 25.8064C115.456 16.5404 116.868 11.9074 119.651 8.475C122.095 5.44424 125.276 3.09053 128.888 1.6385C132.985 0 137.815 0 147.505 0H191.787C201.477 0 206.336 0 210.432 1.65262C214.033 3.1054 217.217 5.45373 219.656 8.475Z" fill="white"/>
<path d="M225.816 238.328C215.646 247.029 195.348 252.947 171.971 252.947C143.269 252.947 119.214 244.02 112.83 232C110.556 238.893 110.033 246.775 110.033 251.803C110.033 251.803 108.536 276.522 125.726 293.726C125.726 284.799 132.972 277.553 141.899 277.553C157.196 277.553 157.182 290.901 157.168 301.735V302.71C157.168 319.151 167.211 333.234 181.505 339.181C179.305 334.652 178.165 329.681 178.172 324.646C178.172 308.967 187.381 303.134 198.088 296.354C206.591 290.944 216.055 284.955 222.567 272.906C226.078 266.427 227.913 259.173 227.906 251.803C227.908 247.231 227.203 242.685 225.816 238.328Z" fill="#FE5804"/>
</g>
<defs>
<clipPath id="clip0_1248_23173">
<rect width="339" height="339" fill="white"/>
</clipPath>
</defs>
</svg>
